<svg width="35" height="29" viewBox="0 0 35 29" fill="none" xmlns="http://www.w3.org/2000/svg">
<path d="M21 10.9944C21.0012 12.7746 20.445 14.5152 19.4019 15.996C18.3587 17.4768 16.8754 18.6312 15.1396 19.3133C13.4038 19.9953 11.4935 20.1744 9.65029 19.8278C7.80708 19.4811 6.11378 18.6244 4.78459 17.366C3.45539 16.1075 2.55003 14.5039 2.18298 12.7579C1.81594 11.0119 2.00371 9.20202 2.72257 7.55716C3.44143 5.91229 4.65907 4.50634 6.22146 3.51716C7.78386 2.52798 9.62081 2 11.5 2C12.7473 1.99926 13.9825 2.23135 15.135 2.68302C16.2876 3.1347 17.3349 3.7971 18.2172 4.63237C19.0994 5.46765 19.7992 6.45943 20.2767 7.55105C20.7542 8.64266 21 9.81272 21 10.9944Z" stroke="#1B3840" stroke-width="3" stroke-linecap="round" stroke-linejoin="round"/>
<path d="M34 19.0056C33.9988 20.7854 33.4406 22.5249 32.3961 24.0042C31.3515 25.4835 29.8674 26.6362 28.1314 27.3165C26.3954 27.9969 24.4854 28.1743 22.643 27.8264C20.8006 27.4785 19.1084 26.6209 17.7804 25.362C16.4524 24.1031 15.5482 22.4994 15.1821 20.7537C14.816 19.0081 15.0045 17.1987 15.7237 15.5545C16.4429 13.9103 17.6606 12.5051 19.2227 11.5164C20.7848 10.5277 22.6213 10 24.5 10C25.7481 10 26.9839 10.233 28.1369 10.6856C29.2899 11.1383 30.3374 11.8017 31.2196 12.638C32.1019 13.4744 32.8015 14.4672 33.2786 15.5598C33.7556 16.6524 34.0008 17.8233 34 19.0056V19.0056Z" stroke="#F2A873" stroke-width="2" stroke-miterlimit="10"/>
</svg>
