<svg width="34" height="13" viewBox="0 0 34 13" fill="none" xmlns="http://www.w3.org/2000/svg">
<path d="M8 7C5.14856 7 5.63961 2 2 2" stroke="#1B3840" stroke-width="3" stroke-linecap="round" stroke-linejoin="round"/>
<path d="M19 7C16.1466 7 16.638 2 13 2" stroke="#1B3840" stroke-width="3" stroke-linecap="round" stroke-linejoin="round"/>
<path d="M8 7C10.8514 7 10.3604 2 14 2" stroke="#1B3840" stroke-width="3" stroke-linecap="round" stroke-linejoin="round"/>
<path d="M19 7C21.8514 7 21.3604 2 25 2" stroke="#1B3840" stroke-width="3" stroke-linecap="round" stroke-linejoin="round"/>
<path d="M17 12C14.1486 12 14.6396 7 11 7" stroke="#F2A873" stroke-width="2" stroke-miterlimit="10"/>
<path d="M29 12C26.1486 12 26.6396 7 23 7" stroke="#F2A873" stroke-width="2" stroke-miterlimit="10"/>
<path d="M17 12C19.8534 12 19.362 7 23 7" stroke="#F2A873" stroke-width="2" stroke-miterlimit="10"/>
<path d="M28 12C30.8534 12 30.362 7 34 7" stroke="#F2A873" stroke-width="2" stroke-miterlimit="10"/>
</svg>
