<svg width="25" height="24" viewBox="0 0 25 24" fill="none" xmlns="http://www.w3.org/2000/svg">
<g clip-path="url(#clip0_231_1028)">
<path d="M4.4668 24H12.2949V15.4688H9.48242V12.6562H12.2949V9.14062C12.2949 7.20209 13.872 5.625 15.8105 5.625H19.3262V8.4375H16.5137C15.7382 8.4375 15.1074 9.0683 15.1074 9.84375V12.6562H19.1993L18.7305 15.4688H15.1074V24H21.4355C23.3741 24 24.9512 22.4229 24.9512 20.4844V3.51562C24.9512 1.57709 23.3741 0 21.4355 0H4.4668C2.52826 0 0.951172 1.57709 0.951172 3.51562V20.4844C0.951172 22.4229 2.52826 24 4.4668 24ZM2.35742 3.51562C2.35742 2.35254 3.30371 1.40625 4.4668 1.40625H21.4355C22.5986 1.40625 23.5449 2.35254 23.5449 3.51562V20.4844C23.5449 21.6475 22.5986 22.5938 21.4355 22.5938H16.5137V16.875H19.9218L20.8593 11.25H16.5137V9.84375H20.7324V4.21875H15.8105C13.0966 4.21875 10.8887 6.42664 10.8887 9.14062V11.25H8.07617V16.875H10.8887V22.5938H4.4668C3.30371 22.5938 2.35742 21.6475 2.35742 20.4844V3.51562Z" fill="#1B3840"/>
</g>
<defs>
<clipPath id="clip0_231_1028">
<rect width="24" height="24" fill="white" transform="translate(0.951172)"/>
</clipPath>
</defs>
</svg>
