<svg width="25" height="24" viewBox="0 0 25 24" fill="none" xmlns="http://www.w3.org/2000/svg">
<g clip-path="url(#clip0_231_1033)">
<path d="M18.3719 0H7.53041C3.90261 0 0.951172 2.95144 0.951172 6.57928V17.4208C0.951172 21.0486 3.90261 24 7.53041 24H18.3719C21.9998 24 24.9512 21.0486 24.9512 17.4208V6.57928C24.9512 2.95144 21.9998 0 18.3719 0ZM23.5339 17.4208C23.5339 20.2671 21.2183 22.5827 18.3719 22.5827H7.53041C4.68411 22.5827 2.36848 20.2671 2.36848 17.4208V6.57928C2.36848 3.73294 4.68411 1.41731 7.53041 1.41731H18.3719C21.2183 1.41731 23.5339 3.73294 23.5339 6.57928V17.4208Z" fill="#1B3840"/>
<path d="M12.9518 5.41797C9.32212 5.41797 6.36914 8.37095 6.36914 12.0007C6.36914 15.6304 9.32208 18.5834 12.9518 18.5834C16.5816 18.5834 19.5346 15.6303 19.5346 12.0006C19.5346 8.3709 16.5816 5.41797 12.9518 5.41797ZM12.9518 17.1661C10.1036 17.1661 7.78641 14.8488 7.78641 12.0006C7.78641 9.1524 10.1036 6.83519 12.9518 6.83519C15.8001 6.83519 18.1173 9.15245 18.1173 12.0007C18.1173 14.8489 15.8001 17.1661 12.9518 17.1661Z" fill="#1B3840"/>
<path d="M19.9277 3.02344C18.8249 3.02344 17.9277 3.92067 17.9277 5.02345C17.9277 6.12623 18.8249 7.02342 19.9277 7.02342C21.0305 7.02342 21.9277 6.12619 21.9277 5.02341C21.9277 3.92063 21.0305 3.02344 19.9277 3.02344ZM19.9277 5.60606C19.6065 5.60606 19.345 5.34469 19.345 5.02341C19.345 4.70213 19.6065 4.44075 19.9277 4.44075C20.249 4.44075 20.5104 4.70217 20.5104 5.02341C20.5104 5.34464 20.249 5.60606 19.9277 5.60606Z" fill="#1B3840"/>
</g>
<defs>
<clipPath id="clip0_231_1033">
<rect width="24" height="24" fill="white" transform="translate(0.951172)"/>
</clipPath>
</defs>
</svg>
