<svg width="21" height="20" viewBox="0 0 21 20" fill="none" xmlns="http://www.w3.org/2000/svg">
<path d="M15.9339 8.99167V12.325C15.9339 12.5417 15.9255 12.75 15.9005 12.95C15.7089 15.2 14.3839 16.3167 11.9422 16.3167H11.6089C11.4005 16.3167 11.2005 16.4167 11.0755 16.5833L10.0755 17.9167C9.63386 18.5083 8.91719 18.5083 8.47552 17.9167L7.47551 16.5833C7.36718 16.4417 7.12552 16.3167 6.94219 16.3167H6.60886C3.95053 16.3167 2.61719 15.6583 2.61719 12.325V8.99167C2.61719 6.55001 3.74219 5.22501 5.98386 5.03334C6.18386 5.00834 6.39219 5 6.60886 5H11.9422C14.6005 5 15.9339 6.33334 15.9339 8.99167Z" stroke="#1B3840" stroke-width="1.5" stroke-miterlimit="10" stroke-linecap="round" stroke-linejoin="round"/>
<path d="M19.2677 5.65867V8.992C19.2677 11.442 18.1427 12.7587 15.901 12.9503C15.926 12.7503 15.9344 12.542 15.9344 12.3253V8.992C15.9344 6.33367 14.601 5.00033 11.9427 5.00033H6.60937C6.39271 5.00033 6.18437 5.00867 5.98438 5.03367C6.17604 2.792 7.50104 1.66699 9.94271 1.66699H15.276C17.9344 1.66699 19.2677 3.00033 19.2677 5.65867Z" stroke="#1B3840" stroke-width="1.5" stroke-miterlimit="10" stroke-linecap="round" stroke-linejoin="round"/>
<path d="M12.1981 11.0417H12.2056" stroke="#1B3840" stroke-width="2" stroke-linecap="round" stroke-linejoin="round"/>
<path d="M9.2801 11.0417H9.2876" stroke="#1B3840" stroke-width="2" stroke-linecap="round" stroke-linejoin="round"/>
<path d="M6.36409 11.0417H6.37159" stroke="#1B3840" stroke-width="2" stroke-linecap="round" stroke-linejoin="round"/>
</svg>
