<svg width="21" height="20" viewBox="0 0 21 20" fill="none" xmlns="http://www.w3.org/2000/svg">
<path d="M4.04538 0.117254C3.57272 0.242254 3.32272 0.402411 2.82272 0.898504C2.00632 1.711 1.4985 2.64069 1.17038 3.92975C0.436004 6.82819 1.53757 9.62507 4.8696 13.3204C5.59616 14.1251 6.92038 15.4337 7.57272 15.9923C9.80319 17.9024 12.0923 19.1563 14.3305 19.6876C16.061 20.1016 17.4087 20.0118 18.6665 19.3985C18.9048 19.2813 19.2094 19.1016 19.3501 18.9923C19.6587 18.7579 20.2212 18.1758 20.4594 17.836C21.0024 17.0743 21.0962 16.2266 20.7134 15.4571C20.6079 15.2462 20.3657 14.9883 18.9087 13.5313C17.1079 11.7383 17.0844 11.7188 16.5571 11.5743C16.2602 11.4923 15.7055 11.504 15.4048 11.5977C14.9751 11.7305 14.7251 11.9141 14.0376 12.6016C13.6821 12.9532 13.3735 13.2423 13.3501 13.2423C13.2837 13.2423 12.3618 12.6915 11.8891 12.3673C10.2446 11.2383 9.07272 9.94538 7.95944 8.02741L7.75632 7.67585L8.40866 7.01179C9.31491 6.08991 9.45944 5.836 9.4946 5.08991C9.51413 4.76179 9.50241 4.65241 9.436 4.42585C9.27585 3.90241 9.17429 3.78913 7.42038 2.03913C5.61569 0.242254 5.59225 0.222723 4.9946 0.097723C4.63522 0.0235043 4.39304 0.0274105 4.04538 0.117254ZM4.83835 1.3321C4.97116 1.36725 5.23679 1.61725 6.54929 2.92194C7.47116 3.83991 8.13913 4.53522 8.186 4.62897C8.23679 4.72272 8.26804 4.86335 8.26804 4.98054C8.27194 5.35944 8.22507 5.42975 7.39694 6.2696C6.97116 6.69929 6.59616 7.10944 6.5571 7.18366C6.47116 7.35554 6.43991 7.67585 6.4946 7.87507C6.54538 8.06647 7.13132 9.09772 7.51804 9.67585C8.77585 11.5587 10.2758 12.9298 12.4087 14.1524C13.1899 14.6016 13.4438 14.6524 13.854 14.4493C13.9477 14.4024 14.3383 14.0508 14.7602 13.6329C15.1704 13.2305 15.5571 12.8712 15.6196 12.8399C15.811 12.7423 16.0141 12.7227 16.2329 12.7735C16.436 12.8204 16.479 12.8594 17.9946 14.3712C18.8501 15.2227 19.5844 15.9844 19.6274 16.0626C19.7837 16.3633 19.7016 16.7735 19.4087 17.168C18.8149 17.961 18.2446 18.3438 17.2915 18.5821C16.7173 18.7266 15.8696 18.7344 15.1313 18.5977C12.1665 18.0469 9.18991 16.1524 6.17429 12.8985C4.01022 10.5665 2.90085 8.87507 2.42038 7.17975C1.88132 5.29304 2.40475 3.03522 3.67429 1.78132C4.12741 1.3321 4.42038 1.21882 4.83835 1.3321Z" fill="#1B3840"/>
<path d="M12.9755 1.87642C12.6825 1.96627 12.4794 2.27486 12.5263 2.56392C12.5497 2.71236 12.7059 2.94283 12.827 3.00924C12.8661 3.02877 13.0731 3.07955 13.2841 3.12252C14.3817 3.33736 15.3934 3.88814 16.2489 4.74361C17.1122 5.60689 17.6981 6.68502 17.8817 7.74752C17.952 8.14595 18.0145 8.28267 18.1825 8.40377C18.5341 8.65377 19.0731 8.4272 19.1395 8.00142C19.1747 7.8022 19.0536 7.18502 18.8817 6.6733C18.1981 4.62252 16.5614 2.93502 14.538 2.18502C13.9442 1.96627 13.1747 1.81392 12.9755 1.87642Z" fill="#1B3840"/>
<path d="M12.2874 4.51953C12.1273 4.59766 12.0179 4.73047 11.9632 4.91797C11.8616 5.25391 12.1273 5.63281 12.5023 5.6875C12.9866 5.75781 13.6624 6.08984 14.1702 6.50781C14.7445 6.98047 15.2366 7.79688 15.389 8.53125C15.4202 8.67969 15.4827 8.85547 15.5296 8.91797C15.6195 9.04297 15.8734 9.17578 16.0257 9.17969C16.1898 9.17969 16.4515 9.02734 16.5452 8.875C16.8265 8.41797 16.3577 7.14453 15.5257 6.11719C14.971 5.42969 13.9124 4.75391 13.0374 4.53125C12.6741 4.4375 12.4593 4.43359 12.2874 4.51953Z" fill="#1B3840"/>
</svg>
