<svg width="25" height="24" viewBox="0 0 25 24" fill="none" xmlns="http://www.w3.org/2000/svg">
<g clip-path="url(#clip0_231_1230)">
<path d="M14.0003 5.61807C8.18426 8.09008 2.85517 10.358 2.15946 10.6502C1.46376 10.947 0.907197 11.2068 0.930387 11.2253C0.948939 11.2439 2.32643 11.7958 3.98221 12.4497C5.64262 13.1083 7.02011 13.6695 7.04794 13.6973C7.07577 13.7298 7.58595 15.5896 8.17962 17.8343C8.77792 20.0791 9.27419 21.9296 9.28811 21.9481C9.30666 21.9667 10.2204 21.1041 11.3288 20.0373C12.4327 18.966 13.3649 18.0894 13.3928 18.094C13.4206 18.094 14.914 19.1144 16.7136 20.3573C19.3665 22.194 19.988 22.6114 20.0159 22.5464C20.053 22.4676 24.5982 1.14713 24.5843 1.13321C24.5797 1.12858 19.8164 3.14607 14.0003 5.61807ZM20.7904 12.3199C19.8674 16.6563 19.0975 20.2182 19.079 20.2414C19.0558 20.26 17.3165 19.0912 15.2109 17.6349L11.3799 14.9866L13.5458 12.9089C20.322 6.41116 22.4276 4.40294 22.4462 4.42149C22.4601 4.43541 21.7134 7.98804 20.7904 12.3199ZM17.2655 5.77112C17.2562 5.7804 15.0717 7.27381 12.4095 9.08723L7.57204 12.3801L6.03685 11.7726C5.19273 11.434 4.52022 11.1557 4.54341 11.1465C4.5666 11.1372 7.42362 9.92205 10.8929 8.4472C14.3621 6.9677 17.2191 5.75721 17.2423 5.75721C17.2655 5.75257 17.2748 5.76185 17.2655 5.77112ZM16.6904 7.97413C16.5095 8.14573 15.1042 9.49537 13.5597 10.9702C12.0153 12.4451 10.4986 13.9014 10.1832 14.2075L9.61277 14.7594L9.50146 15.7844C9.44116 16.3456 9.38087 16.8093 9.37159 16.8186C9.36232 16.8325 9.1536 16.0812 8.90779 15.1583C8.66197 14.2307 8.47645 13.4608 8.495 13.4422C8.54602 13.3912 16.964 7.65875 16.9919 7.65412C17.0058 7.65412 16.8666 7.79789 16.6904 7.97413ZM11.5236 16.7769C11.8761 17.0227 12.1683 17.2407 12.1683 17.2592C12.1683 17.3242 10.6146 18.7851 10.596 18.7341C10.5775 18.6738 10.8326 16.327 10.8558 16.327C10.865 16.327 11.1665 16.5311 11.5236 16.7769Z" fill="#1B3840"/>
</g>
<defs>
<clipPath id="clip0_231_1230">
<rect width="23.7467" height="23.7461" fill="white" transform="translate(0.851562)"/>
</clipPath>
</defs>
</svg>
