<svg width="25" height="24" viewBox="0 0 25 24" fill="none" xmlns="http://www.w3.org/2000/svg">
<g clip-path="url(#clip0_231_1030)">
<path d="M20.2278 20.4044H5.67458C3.07011 20.4044 0.951172 18.2855 0.951172 15.681V8.31715C0.951172 5.71264 3.07011 3.59375 5.67458 3.59375H20.2278C22.8323 3.59375 24.9512 5.71264 24.9512 8.31715V15.6811C24.9512 18.2855 22.8323 20.4044 20.2278 20.4044ZM5.67458 5C3.84552 5 2.35742 6.48805 2.35742 8.31715V15.6811C2.35742 17.5102 3.84552 18.9982 5.67458 18.9982H20.2278C22.0569 18.9982 23.5449 17.5101 23.5449 15.6811V8.31715C23.5449 6.48805 22.0569 5 20.2278 5H5.67458Z" fill="#1B3840"/>
<path d="M10.6211 16.5037C10.5028 16.5037 10.3843 16.4739 10.2774 16.414C10.0555 16.2897 9.91797 16.0551 9.91797 15.8006V8.10938C9.91797 7.85344 10.057 7.6177 10.2811 7.49395C10.5051 7.37016 10.7787 7.37789 10.9953 7.51416L17.1931 11.4109C17.399 11.5403 17.5233 11.7671 17.5219 12.0103C17.5205 12.2535 17.3934 12.4788 17.1859 12.6058L10.9883 16.4003C10.8757 16.4692 10.7485 16.5037 10.6211 16.5037ZM11.3242 9.38198V14.5457L15.4852 11.9982L11.3242 9.38198Z" fill="#1B3840"/>
</g>
<defs>
<clipPath id="clip0_231_1030">
<rect width="24" height="24" fill="white" transform="translate(0.951172)"/>
</clipPath>
</defs>
</svg>
