<svg width="25" height="24" viewBox="0 0 25 24" fill="none" xmlns="http://www.w3.org/2000/svg">
<path fill-rule="evenodd" clip-rule="evenodd" d="M22.4219 12C22.4219 17.52 17.9319 22 12.4219 22L12.1421 21.9962C6.7513 21.8478 2.42188 17.4264 2.42188 12C2.42188 6.49 6.90188 2 12.4219 2C17.9319 2 22.4219 6.49 22.4219 12ZM10.4419 8C10.1519 8.3 10.1519 8.77 10.4519 9.06L13.4019 12L10.4519 14.94C10.1519 15.23 10.1519 15.71 10.4419 16C10.7419 16.3 11.2119 16.3 11.5019 16L14.9919 12.53C15.1319 12.39 15.2119 12.2 15.2119 12C15.2119 11.8 15.1319 11.61 14.9919 11.47L11.5019 8C11.3619 7.85 11.1719 7.78 10.9819 7.78C10.7819 7.78 10.5919 7.85 10.4419 8Z" fill="#F2A873"/>
</svg>
