<svg width="17" height="16" viewBox="0 0 17 16" fill="none" xmlns="http://www.w3.org/2000/svg">
<g clip-path="url(#clip0_1127_18392)">
<path d="M1.18448 0.0281219C0.896982 0.103122 0.643857 0.309372 0.512607 0.578122C0.403232 0.799996 0.403232 1.19687 0.509482 1.42187C0.568857 1.54687 1.20636 2.2 3.79073 4.79062L6.99698 8L3.79073 11.2125C0.306357 14.7 0.459482 14.5312 0.425107 14.925C0.393857 15.3187 0.590732 15.675 0.950107 15.8719C1.14073 15.975 1.17198 15.9844 1.41886 15.9812C1.63136 15.9812 1.71573 15.9656 1.84073 15.9062C1.96886 15.8469 2.60323 15.2281 5.20948 12.6281L8.41885 9.42187L11.6314 12.6281C14.2345 15.2281 14.8689 15.8469 14.997 15.9062C15.122 15.9656 15.2064 15.9812 15.4189 15.9812C15.6626 15.9844 15.7001 15.975 15.8814 15.8781C16.1001 15.7594 16.1939 15.6594 16.3189 15.425C16.4314 15.2031 16.4376 14.8125 16.3251 14.5781C16.2657 14.45 15.647 13.8156 13.047 11.2125L9.84073 8L13.047 4.7875C15.647 2.18437 16.2657 1.55 16.3251 1.42187C16.3845 1.29687 16.4001 1.2125 16.4001 0.999997C16.4032 0.756247 16.3939 0.718747 16.297 0.537497C16.1782 0.318747 16.0782 0.224997 15.8439 0.0999966C15.622 -0.0125036 15.2314 -0.0187531 14.997 0.0937471C14.8689 0.153122 14.2345 0.771872 11.6314 3.37187L8.41885 6.57812L5.20948 3.37187C2.59073 0.756247 1.96886 0.153122 1.84386 0.0968714C1.67823 0.0218716 1.34073 -0.0156279 1.18448 0.0281219Z" fill="#1B3840"/>
</g>
<defs>
<clipPath id="clip0_1127_18392">
<rect width="16" height="16" fill="white" transform="translate(0.421875)"/>
</clipPath>
</defs>
</svg>
