<svg width="24" height="24" viewBox="0 0 24 24" fill="none" xmlns="http://www.w3.org/2000/svg">
<path d="M0.754688 0.079401C0.342188 0.224714 0 0.716902 0 1.17159C0 1.26534 0.0328125 1.44815 0.075 1.57471C0.145313 1.78565 0.571875 2.22628 5.24531 6.9044L10.3359 11.9997L5.26406 17.0763C2.47969 19.8653 0.159375 22.2185 0.117188 22.3075C-0.09375 22.7294 0.0046875 23.306 0.351562 23.6482C0.675 23.9763 1.11563 24.0747 1.575 23.9247C1.78594 23.8544 2.22656 23.4278 6.9 18.7544L12 13.6638L17.1 18.7544C21.7734 23.4278 22.2141 23.8544 22.425 23.9247C22.8844 24.0747 23.325 23.9763 23.6484 23.6482C23.9766 23.3247 24.075 22.8841 23.925 22.4247C23.8547 22.2138 23.4281 21.7732 18.7547 17.095L13.6641 11.9997L18.7547 6.89971C23.4281 2.22628 23.8547 1.78565 23.925 1.57471C24.075 1.11534 23.9766 0.674713 23.6484 0.351276C23.325 0.0231514 22.8844 -0.0752869 22.425 0.0747147C22.2141 0.145027 21.7734 0.571589 17.0953 5.24503L12 10.3357L6.9 5.24503C2.22656 0.571589 1.78594 0.145027 1.575 0.0747147C1.28906 -0.0190372 1.02656 -0.014349 0.754688 0.079401Z" fill="black"/>
</svg>
