<svg width="32" height="32" viewBox="0 0 32 32" fill="none" xmlns="http://www.w3.org/2000/svg">
<path d="M4.13125 0.09375C3.19375 0.299999 2.54375 0.612499 1.8625 1.1875C1.13125 1.79375 0.55625 2.66875 0.26875 3.59375L0.09375 4.15625V16V27.8438L0.26875 28.4062C0.76875 30.025 2.0375 31.2937 3.65625 31.7938L4.21875 31.9688H11.3438H18.4688L19.0312 31.7938C20.65 31.2937 21.925 30.0187 22.4188 28.4062C22.5875 27.8438 22.5875 27.8375 22.5938 25.9688C22.5938 24.1 22.5938 24.0938 22.4438 23.8562C22.3625 23.725 22.1812 23.5437 22.0438 23.45C21.8313 23.3062 21.7188 23.2812 21.375 23.2812C21.0312 23.2812 20.9188 23.3062 20.7063 23.45C20.5688 23.5437 20.3875 23.725 20.3062 23.8562C20.1625 24.0875 20.1562 24.1437 20.1187 25.8125C20.0875 27.4062 20.075 27.5563 19.9438 27.8937C19.675 28.5812 19.1187 29.1125 18.4125 29.3563C18.1125 29.4625 17.675 29.4688 11.3125 29.4688H4.53125L4.16875 29.325C3.475 29.0438 2.95 28.4937 2.70625 27.7875C2.6 27.4875 2.59375 26.875 2.59375 16C2.59375 5.125 2.6 4.5125 2.70625 4.2125C2.95 3.50625 3.475 2.95625 4.16875 2.675L4.53125 2.53125H11.3125C17.675 2.53125 18.1125 2.5375 18.4125 2.64375C19.1187 2.8875 19.675 3.41875 19.9438 4.10625C20.075 4.44375 20.0875 4.59375 20.1187 6.19375L20.1562 7.91875L20.325 8.16875C20.5813 8.55625 20.8875 8.71875 21.375 8.71875C21.8625 8.71875 22.1688 8.55625 22.425 8.16875L22.5938 7.9125V6.0375C22.5875 4.1625 22.5875 4.15625 22.4188 3.59375C21.925 1.98125 20.65 0.706249 19.0312 0.206249L18.4688 0.03125L11.5 0.0187492C5.725 0.0124989 4.4625 0.0249996 4.13125 0.09375Z" fill="#626262"/>
<path d="M26.9688 10.8064C26.4187 11.0627 26.1375 11.6252 26.2625 12.2252C26.3187 12.5127 26.4062 12.6127 27.4563 13.6689L28.5875 14.8127L20.8688 14.8252L13.15 14.8439L12.8938 15.0127C12.5 15.2689 12.3438 15.5752 12.3438 16.0689C12.3438 16.4064 12.375 16.5189 12.5125 16.7314C12.6062 16.8689 12.7875 17.0502 12.9187 17.1314L13.1562 17.2814L20.8688 17.3002L28.5875 17.3127L27.4563 18.4564C26.4062 19.5127 26.3187 19.6127 26.2625 19.9002C26.05 20.9127 27.05 21.7439 27.9688 21.3189C28.1313 21.2439 28.7938 20.6189 29.8813 19.5252C31.425 17.9627 31.5562 17.8127 31.7563 17.3752C31.9625 16.9127 31.9688 16.8939 31.9688 16.0627C31.9688 15.2314 31.9625 15.2127 31.7563 14.7502C31.5562 14.3127 31.425 14.1627 29.8813 12.6002C28.7938 11.5064 28.1313 10.8814 27.9688 10.8064C27.65 10.6564 27.2875 10.6564 26.9688 10.8064Z" fill="#626262"/>
</svg>
