<svg width="17" height="17" viewBox="0 0 17 17" fill="none" xmlns="http://www.w3.org/2000/svg">
<path d="M7.93555 0.0332031C5.62793 0.31543 3.83828 2.125 3.58926 4.42266C3.56934 4.60195 3.55273 5.19297 3.55273 5.74414V6.74023H2.63965H1.72656V11.8701V17H8.5H15.2734V11.8701V6.74023H14.3604H13.4473V5.74414C13.4473 4.68828 13.4174 4.27656 13.3111 3.81836C12.926 2.16816 11.6875 0.806835 10.0771 0.268946C9.85801 0.195898 9.5459 0.11289 9.37988 0.0830078C9.01133 0.0199223 8.2709 -0.00664139 7.93555 0.0332031ZM9.28027 1.0791C9.60234 1.14551 10.0141 1.28496 10.2598 1.41113C11.1695 1.87266 11.91 2.7127 12.2287 3.65234C12.4113 4.19023 12.4246 4.31641 12.4412 5.56816L12.4578 6.74023H11.9598H11.4617L11.4484 5.60137C11.4352 4.55879 11.4285 4.44258 11.3621 4.20352C11.1264 3.34687 10.5055 2.61641 9.71191 2.25449C9.31348 2.0752 8.99805 2.01211 8.5 2.01211C8.00195 2.01211 7.68652 2.0752 7.28809 2.25449C6.49453 2.61641 5.87363 3.34687 5.63789 4.20352C5.57148 4.44258 5.56484 4.55879 5.55156 5.60137L5.53828 6.74023H5.04023H4.54219L4.55879 5.56816C4.57539 4.31641 4.58867 4.19023 4.77129 3.65234C5.09004 2.7127 5.83047 1.87266 6.74023 1.41113C7.08555 1.23848 7.58359 1.08906 8.08496 1.01602C8.2875 0.986132 9.02461 1.02598 9.28027 1.0791ZM8.91504 3.03809C9.64551 3.19082 10.2564 3.80176 10.4092 4.53223C10.4457 4.70488 10.459 5.01699 10.459 5.75078V6.74023H8.5H6.54102V5.75078C6.54102 4.62519 6.56426 4.4459 6.76348 4.05078C6.93281 3.71211 7.26484 3.38008 7.60352 3.21074C8.0252 3.00156 8.46016 2.9418 8.91504 3.03809ZM14.2773 11.8701V16.0039H8.5H2.72266V11.8701V7.73633H8.5H14.2773V11.8701Z" fill="#F2A873"/>
<path d="M8.10191 9.39288C7.66695 9.51241 7.3482 9.73487 7.10914 10.0968C6.71402 10.6878 6.75055 11.498 7.19879 12.0458L7.315 12.1919L7.08258 13.2743C6.95309 13.872 6.8568 14.37 6.86344 14.3833C6.88004 14.4165 10.1207 14.4165 10.1373 14.3833C10.1439 14.37 10.0476 13.872 9.91813 13.2743L9.6857 12.1919L9.80191 12.0458C10.0443 11.7503 10.1605 11.4116 10.1605 11.0032C10.1605 10.2196 9.64586 9.57882 8.86227 9.38292C8.58668 9.31651 8.37418 9.31651 8.10191 9.39288ZM8.79586 10.4122C9.0316 10.5317 9.14117 10.6978 9.15777 10.97C9.17438 11.2489 9.08141 11.4216 8.80582 11.6142C8.65973 11.7171 8.59996 11.7802 8.59996 11.83C8.60328 11.8698 8.67301 12.2317 8.76266 12.6335C8.84898 13.0353 8.91539 13.3739 8.90875 13.3872C8.90211 13.4038 8.71617 13.4138 8.50035 13.4138C8.28453 13.4138 8.09859 13.4038 8.09195 13.3872C8.08531 13.3739 8.15172 13.0353 8.23805 12.6335C8.3277 12.2317 8.39742 11.8698 8.40074 11.83C8.40074 11.7802 8.34098 11.7171 8.19488 11.6142C7.9193 11.4216 7.82633 11.2489 7.84293 10.97C7.85953 10.6978 7.9691 10.5317 8.20484 10.4122C8.30113 10.3657 8.43395 10.3259 8.50035 10.3259C8.56676 10.3259 8.69957 10.3657 8.79586 10.4122Z" fill="#F2A873"/>
</svg>
