<svg width="18" height="18" viewBox="0 0 18 18" fill="none" xmlns="http://www.w3.org/2000/svg">
<path d="M8.35807 0.011692C8.29117 0.0187302 8.08345 0.0433636 7.90038 0.0609589C6.73856 0.187649 5.45351 0.624023 4.41492 1.24339C3.09467 2.03168 2.02086 3.10502 1.23223 4.4247C0.616117 5.45228 0.207719 6.64879 0.042248 7.90865C-0.0140827 8.3415 -0.0140827 9.65766 0.042248 10.0905C0.207719 11.3504 0.616117 12.5469 1.23223 13.5745C2.02086 14.8941 3.09467 15.9675 4.41492 16.7558C5.43591 17.3646 6.66462 17.7869 7.86517 17.9382C8.33342 17.998 9.18542 18.0191 9.60086 17.9804C9.93533 17.9523 9.9987 17.9347 10.1254 17.8467C10.4986 17.5828 10.5268 17.069 10.1888 16.7628C9.99518 16.5868 9.86491 16.5622 9.27344 16.5904C5.92528 16.7311 2.8271 14.5739 1.77794 11.3715C1.43995 10.3369 1.32025 9.31278 1.42235 8.29223C1.51037 7.41245 1.78146 6.45172 2.15817 5.67751C2.88695 4.18539 4.17199 2.89739 5.66475 2.16893C7.50958 1.27155 9.66423 1.15893 11.5971 1.86628C13.1074 2.41879 14.4207 3.44989 15.3114 4.77661L15.5332 5.11093L14.4488 5.12852L13.3645 5.14612L13.2131 5.25169C12.8011 5.54378 12.8011 6.12092 13.2131 6.41301L13.3645 6.51859L14.6319 6.52914C16.0648 6.5397 16.2725 6.51859 16.7091 6.31448C17.3499 6.01183 17.8111 5.42765 17.9519 4.7379C17.9977 4.51619 18.0047 4.24874 17.9977 3.22115L17.9871 1.97185L17.892 1.83109C17.7477 1.6129 17.5752 1.5214 17.3006 1.5214C17.026 1.5214 16.8534 1.6129 16.7091 1.83109L16.614 1.97185L16.6035 3.06279L16.5929 4.1502L16.4134 3.88979C16.1035 3.44989 15.8571 3.15429 15.4346 2.72143C14.0475 1.29618 12.3083 0.405836 10.312 0.0926323C9.87547 0.0257683 8.66788 -0.0235004 8.35807 0.011692Z" fill="#8B8B8B"/>
<path d="M9.11176 2.03156C8.95978 2.07821 8.74701 2.31863 8.70311 2.4837C8.67947 2.57342 8.66596 3.54948 8.66596 5.38319V8.14632L7.38258 9.50994C6.51798 10.4322 6.08568 10.9166 6.04853 11.0063C5.95059 11.2611 6.00463 11.5841 6.17687 11.785C6.35249 11.986 6.68685 12.0578 6.93677 11.9501C7.07524 11.8855 9.70617 9.12597 9.89193 8.84607L10 8.68459V5.58056V2.47653L9.91894 2.34016C9.76021 2.06744 9.40897 1.93467 9.11176 2.03156Z" fill="#8B8B8B"/>
<path d="M16.9459 10.0106C16.7242 10.0411 16.4752 10.1597 16.3666 10.292C16.2399 10.4445 16 11.1293 16 11.3361C16 11.6616 16.2716 11.9091 16.7196 11.9802C16.9188 12.0108 16.9912 12.0074 17.1541 11.9599C17.5841 11.8379 17.6882 11.7158 17.8919 11.1124C18.0322 10.6886 18.0367 10.5394 17.9009 10.3496C17.7244 10.0953 17.3442 9.95973 16.9459 10.0106Z" fill="#8B8B8B"/>
<path d="M15.9649 13.0311C15.8302 13.0823 15.6533 13.2503 15.3531 13.6119C14.9876 14.043 14.926 14.2694 15.0761 14.5799C15.2031 14.8429 15.4686 15 15.7802 15C16.0573 15 16.2381 14.8831 16.5728 14.4959C16.9769 14.0247 17.0153 13.948 16.9961 13.6631C16.9807 13.4074 16.9191 13.3051 16.6806 13.1224C16.5613 13.0311 16.4997 13.0092 16.2997 13.0019C16.1688 12.9946 16.0188 13.0092 15.9649 13.0311Z" fill="#8B8B8B"/>
<path d="M13.1363 15.0293C12.9766 15.0906 12.2855 15.5157 12.2021 15.6097C11.8722 15.9776 11.959 16.6439 12.3688 16.9015C12.6328 17.065 12.7856 17.0363 13.3065 16.7298C13.7788 16.4518 13.883 16.3414 13.9663 16.0594C14.0462 15.7691 13.9837 15.4871 13.7823 15.2541C13.5947 15.0293 13.362 14.9516 13.1363 15.0293Z" fill="#8B8B8B"/>
</svg>
