<svg width="24" height="25" viewBox="0 0 24 25" fill="none" xmlns="http://www.w3.org/2000/svg">
<path d="M11.0479 1.83621C9.02763 2.22059 7.43857 3.7159 6.90419 5.7409C6.80107 6.12996 6.78232 6.3034 6.77763 6.92215C6.77294 7.7284 6.8245 8.07996 7.04482 8.7034C7.66825 10.4893 9.10732 11.7456 10.9917 12.1534C11.7604 12.3175 12.8479 12.2471 13.6636 11.98C15.8667 11.2534 17.362 9.05496 17.2354 6.71121C17.1136 4.46121 15.5104 2.49246 13.3354 1.92527C12.7401 1.77059 11.6292 1.7284 11.0479 1.83621ZM13.1714 3.44871C14.1745 3.78621 14.9386 4.4659 15.3792 5.39871C15.6558 5.98934 15.7214 6.29402 15.7214 6.99246C15.7214 7.7284 15.6558 8.02371 15.3276 8.68465C14.8636 9.62684 14.0667 10.2878 12.9979 10.6065C12.6464 10.7096 12.4964 10.7284 11.9995 10.7284C11.5026 10.7284 11.3526 10.7096 11.0011 10.6065C9.81982 10.255 8.95732 9.47684 8.512 8.35652C8.23544 7.67215 8.17919 6.76277 8.37138 6.05496C8.72763 4.72371 9.75888 3.7159 11.1323 3.35496C11.3948 3.28465 11.5917 3.27059 12.0933 3.28465C12.6604 3.29871 12.7729 3.31277 13.1714 3.44871Z" fill="#1B3840"/>
<path d="M11.2266 12.7812C8.98594 12.9688 6.88594 13.9109 5.27813 15.4531C3.31406 17.3328 2.25 19.85 2.25 22.6109V23.2344H2.99531H3.73594L3.76406 22.3766C3.82031 20.9047 4.06875 19.8922 4.66875 18.7297C6.38906 15.3969 10.1344 13.6391 13.7766 14.45C17.0672 15.1859 19.5703 17.8203 20.1375 21.1484C20.175 21.3781 20.2219 21.9453 20.2359 22.4L20.2641 23.2344H21.0047H21.75V22.6531C21.75 19.2641 20.1797 16.2734 17.4234 14.4031C15.6703 13.2125 13.3406 12.6031 11.2266 12.7812Z" fill="#1B3840"/>
</svg>
