<svg width="32" height="32" viewBox="0 0 32 32" fill="none" xmlns="http://www.w3.org/2000/svg">
<path d="M0.575074 8.10646C-0.0124263 8.39396 -0.181176 9.13771 0.231324 9.63146C0.568824 10.0252 -0.606177 10.0002 16.0001 10.0002C32.7751 10.0002 31.4501 10.0377 31.7876 9.58771C31.9376 9.39396 31.9688 9.29396 31.9688 9.00021C31.9688 8.70646 31.9376 8.60646 31.7876 8.41271C31.4501 7.96271 32.7813 8.00021 15.9876 8.00021C2.11882 8.00021 0.762574 8.01271 0.575074 8.10646Z" fill="black"/>
<path d="M0.593876 15.0877C0.00637541 15.344 -0.181125 16.1377 0.231376 16.6315C0.568876 17.0252 -0.606125 17.0002 16.0001 17.0002C32.7751 17.0002 31.4501 17.0377 31.7876 16.5877C31.9376 16.394 31.9689 16.294 31.9689 16.0002C31.9689 15.7065 31.9376 15.6065 31.7876 15.4127C31.4501 14.9627 32.7814 15.0002 15.9876 15.0002C3.48763 15.0065 0.750126 15.019 0.593876 15.0877Z" fill="black"/>
<path d="M10.5939 22.0877C10.0064 22.344 9.81888 23.1377 10.2314 23.6315C10.5626 24.0252 9.86262 24.0002 21.0064 24.0002C32.3564 24.0002 31.4501 24.0377 31.8001 23.5752C31.9376 23.394 31.9689 23.2877 31.9689 22.994C31.9689 22.6065 31.8626 22.4065 31.5376 22.1627C31.3689 22.0315 31.3626 22.0315 21.0751 22.019C12.6126 22.0065 10.7501 22.019 10.5939 22.0877Z" fill="black"/>
</svg>
