<svg width="14" height="12" viewBox="0 0 14 12" fill="none" xmlns="http://www.w3.org/2000/svg">
<path d="M13.0491 0.018795C12.9999 0.035202 12.9069 0.0871544 12.8386 0.136374C12.7648 0.185593 11.0694 2.10239 8.78351 4.71919C5.05109 8.98755 4.85148 9.21176 4.81046 9.15981C4.78585 9.13247 3.95734 8.24653 2.97023 7.19106C0.97687 5.06645 1.07804 5.15942 0.728043 5.15942C0.183902 5.15942 -0.168832 5.73911 0.0827305 6.22036C0.118277 6.28872 1.0425 7.29497 2.2839 8.61567C4.58624 11.0711 4.52062 11.0082 4.82413 11.0329C5.03468 11.0493 5.21788 10.9782 5.39562 10.8086C5.63624 10.5817 13.8585 1.16176 13.9159 1.05239C14.1483 0.595749 13.8202 0.0324669 13.3034 0.00238895C13.2105 -0.00307941 13.0956 0.00512314 13.0491 0.018795Z" fill="#F2A873"/>
</svg>
