<svg width="20" height="21" viewBox="0 0 20 21" fill="none" xmlns="http://www.w3.org/2000/svg">
<path fill-rule="evenodd" clip-rule="evenodd" d="M20 10.8008C20 16.3208 15.51 20.8008 10 20.8008L9.72023 20.7969C4.32942 20.6486 0 16.2272 0 10.8008C0 5.29078 4.48 0.800781 10 0.800781C15.51 0.800781 20 5.29078 20 10.8008ZM8.02 6.80078C7.73 7.10078 7.73 7.57078 8.03 7.86078L10.98 10.8008L8.03 13.7408C7.73 14.0308 7.73 14.5108 8.02 14.8008C8.32 15.1008 8.79 15.1008 9.08 14.8008L12.57 11.3308C12.71 11.1908 12.79 11.0008 12.79 10.8008C12.79 10.6008 12.71 10.4108 12.57 10.2708L9.08 6.80078C8.94 6.65078 8.75 6.58078 8.56 6.58078C8.36 6.58078 8.17 6.65078 8.02 6.80078Z" fill="#F2A873"/>
</svg>
